<svg width="711.001" xmlns="http://www.w3.org/2000/svg" height="370.667" id="screenshot-ed57dbe9-56c7-80ce-8007-9e399218707a" viewBox="-3870 -725 711.001 370.667" style="-webkit-print-color-adjust::exact" xmlns:xlink="http://www.w3.org/1999/xlink" fill="none" version="1.1">
  <g id="shape-ed57dbe9-56c7-80ce-8007-9e399218707a">
    <g class="fills" id="fills-ed57dbe9-56c7-80ce-8007-9e399218707a">
      <path d="M-3514.6591796875,-539.6689453125L-3283.49169921875,-539.6695556640625M-3349.872802734375,-597.34765625C-3345.89013671875,-569.4735107421875,-3365.259033203125,-543.6516723632812,-3393.1318359375,-539.6688232421875C-3396.71875,-539.1571655273438,-3400.34521484375,-539.028564453125,-3403.952880859375,-539.2846069335938L-3407.551025390625,-539.66943359375C-3411.53369140625,-567.5437622070312,-3392.1650390625,-593.3656005859375,-3364.291748046875,-597.3482666015625C-3360.705078125,-597.860107421875,-3357.078369140625,-597.988525390625,-3353.470947265625,-597.732666015625L-3349.872802734375,-597.34765625ZM-3292.194091796875,-597.3477783203125C-3288.213623046875,-569.4758911132812,-3307.58056640625,-543.6510009765625,-3335.453125,-539.6689453125C-3339.0400390625,-539.1572875976562,-3342.667236328125,-539.0281372070312,-3346.27392578125,-539.2845458984375L-3349.872802734375,-539.6689453125C-3353.85546875,-567.5430908203125,-3334.486083984375,-593.3655395507812,-3306.61376953125,-597.3477783203125C-3303.02685546875,-597.8594360351562,-3299.399658203125,-597.9886474609375,-3295.79296875,-597.732177734375L-3292.194091796875,-597.3477783203125ZM-3234.515869140625,-597.3471069335938C-3230.53564453125,-569.4754028320312,-3249.902099609375,-543.651123046875,-3277.7744140625,-539.6688842773438C-3281.36181640625,-539.1566162109375,-3284.99072265625,-539.0304565429688,-3288.59814453125,-539.2863159179688L-3292.194091796875,-539.6689453125C-3296.1767578125,-567.543212890625,-3276.807373046875,-593.3656616210938,-3248.934814453125,-597.3477172851562C-3245.347900390625,-597.859375,-3241.720947265625,-597.9885864257812,-3238.114013671875,-597.7321166992188L-3234.515869140625,-597.3471069335938ZM-3234.517578125,-481.9925842285156C-3262.389892578125,-478.0103759765625,-3288.213134765625,-497.3780822753906,-3292.194091796875,-525.2492065429688C-3292.706298828125,-528.8355102539062,-3292.8349609375,-532.4644775390625,-3292.577880859375,-536.0706176757812L-3292.194091796875,-539.6689453125C-3264.321533203125,-543.6510009765625,-3238.497802734375,-524.2839965820312,-3234.517822265625,-496.41229248046875C-3234.00537109375,-492.82598876953125,-3233.876220703125,-489.19757080078125,-3234.1337890625,-485.5908508300781L-3234.517578125,-481.9925842285156ZM-3292.1962890625,-481.9924621582031C-3320.06884765625,-478.0104064941406,-3345.891845703125,-497.3779602050781,-3349.872802734375,-525.249267578125C-3350.384521484375,-528.836181640625,-3350.513671875,-532.4645385742188,-3350.256591796875,-536.0704956054688L-3349.872802734375,-539.6689453125C-3321.999755859375,-543.651611328125,-3296.1767578125,-524.2840576171875,-3292.19580078125,-496.4128112792969C-3291.681640625,-492.8234558105469,-3291.554931640625,-489.1976623535156,-3291.8095703125,-485.589111328125L-3292.1962890625,-481.9924621582031ZM-3349.872314453125,-481.9906921386719C-3377.74462890625,-478.0086364746094,-3403.568359375,-497.3756103515625,-3407.551025390625,-525.249755859375C-3408.063232421875,-528.8360595703125,-3408.1923828125,-532.4644165039062,-3407.934814453125,-536.0711669921875L-3407.551025390625,-539.66943359375C-3379.6787109375,-543.6516723632812,-3353.85546875,-524.283935546875,-3349.872314453125,-496.4104309082031C-3349.35986328125,-492.8240966796875,-3349.233642578125,-489.1975402832031,-3349.48828125,-485.5889892578125L-3349.872314453125,-481.9906921386719ZM-3408.916259765625,-597.34765625C-3404.93359375,-569.4735107421875,-3424.302490234375,-543.6516723632812,-3452.17529296875,-539.6688232421875C-3455.76220703125,-539.1571655273438,-3459.388671875,-539.028564453125,-3462.99609375,-539.2846069335938L-3466.594482421875,-539.66943359375C-3470.5771484375,-567.5437622070312,-3451.208251953125,-593.3656005859375,-3423.335205078125,-597.3482666015625C-3419.74853515625,-597.860107421875,-3416.121826171875,-597.988525390625,-3412.514404296875,-597.732666015625L-3408.916259765625,-597.34765625ZM-3408.91552734375,-481.9906921386719C-3436.7880859375,-478.0086364746094,-3462.61181640625,-497.3756103515625,-3466.594482421875,-525.249755859375C-3467.106689453125,-528.8360595703125,-3467.23583984375,-532.4644165039062,-3466.978271484375,-536.0711669921875L-3466.594482421875,-539.66943359375C-3438.72216796875,-543.6516723632812,-3412.89892578125,-524.283935546875,-3408.91552734375,-496.4104309082031C-3408.4033203125,-492.8240966796875,-3408.277099609375,-489.1975402832031,-3408.53173828125,-485.5889892578125L-3408.91552734375,-481.9906921386719ZM-3174.7275390625,-539.6634521484375C-3191.621337890625,-517.138427734375,-3223.575439453125,-512.572509765625,-3246.10107421875,-529.4667358398438C-3249.000244140625,-531.6415405273438,-3251.654541015625,-534.1143188476562,-3254.024658203125,-536.8472290039062L-3256.296875,-539.66357421875C-3239.403076171875,-562.1885986328125,-3207.449462890625,-566.75390625,-3184.923828125,-549.8596801757812C-3181.05810546875,-546.9598388671875,-3177.62744140625,-543.5291137695312,-3174.7275390625,-539.6634521484375ZM-3514.33935546875,-539.66455078125L-3745.5068359375,-539.6639404296875M-3679.125732421875,-481.9858093261719C-3683.1083984375,-509.8599548339844,-3663.739501953125,-535.6817626953125,-3635.86669921875,-539.6646728515625C-3632.27978515625,-540.17626953125,-3628.6533203125,-540.304931640625,-3625.045654296875,-540.048828125L-3621.447509765625,-539.6640625C-3617.46484375,-511.7897033691406,-3636.83349609375,-485.9678649902344,-3664.706787109375,-481.9851989746094C-3668.29345703125,-481.4733581542969,-3671.920166015625,-481.3449401855469,-3675.527587890625,-481.6007995605469L-3679.125732421875,-481.9858093261719ZM-3736.804443359375,-481.9856872558594C-3740.784912109375,-509.8575744628906,-3721.41796875,-535.6824951171875,-3693.54541015625,-539.66455078125C-3689.95849609375,-540.1761474609375,-3686.331298828125,-540.3052978515625,-3682.724609375,-540.0489501953125L-3679.125732421875,-539.66455078125C-3675.14306640625,-511.7903747558594,-3694.512451171875,-485.9679260253906,-3722.384765625,-481.9856872558594C-3725.9716796875,-481.4740295410156,-3729.598876953125,-481.3448181152344,-3733.20556640625,-481.6012878417969L-3736.804443359375,-481.9856872558594ZM-3794.482666015625,-481.9863586425781C-3798.462890625,-509.8580627441406,-3779.096435546875,-535.682373046875,-3751.22412109375,-539.66455078125C-3747.63671875,-540.1768798828125,-3744.0078125,-540.302978515625,-3740.400390625,-540.047119140625L-3736.804443359375,-539.66455078125C-3732.82177734375,-511.7902526855469,-3752.191162109375,-485.9678039550781,-3780.063720703125,-481.9857482910156C-3783.650634765625,-481.4740905761719,-3787.277587890625,-481.3448791503906,-3790.884521484375,-481.6013488769531L-3794.482666015625,-481.9863586425781ZM-3794.48095703125,-597.3408813476562C-3766.608642578125,-601.3230590820312,-3740.785400390625,-581.9553833007812,-3736.804443359375,-554.084228515625C-3736.292236328125,-550.4979248046875,-3736.16357421875,-546.8690185546875,-3736.420654296875,-543.2628173828125L-3736.804443359375,-539.66455078125C-3764.677001953125,-535.6824951171875,-3790.500732421875,-555.0494384765625,-3794.480712890625,-582.921142578125C-3794.9931640625,-586.5074462890625,-3795.122314453125,-590.1358642578125,-3794.86474609375,-593.7426147460938L-3794.48095703125,-597.3408813476562ZM-3736.80224609375,-597.3410034179688C-3708.9296875,-601.3230590820312,-3683.106689453125,-581.9555053710938,-3679.125732421875,-554.0841674804688C-3678.614013671875,-550.497314453125,-3678.48486328125,-546.868896484375,-3678.741943359375,-543.262939453125L-3679.125732421875,-539.66455078125C-3706.998779296875,-535.681884765625,-3732.82177734375,-555.0493774414062,-3736.802734375,-582.920654296875C-3737.31689453125,-586.510009765625,-3737.443603515625,-590.1358032226562,-3737.18896484375,-593.7443237304688L-3736.80224609375,-597.3410034179688ZM-3679.126220703125,-597.3427734375C-3651.25390625,-601.3248291015625,-3625.43017578125,-581.9578247070312,-3621.447509765625,-554.0836791992188C-3620.935302734375,-550.4974365234375,-3620.80615234375,-546.8690185546875,-3621.063720703125,-543.2623291015625L-3621.447509765625,-539.6640625C-3649.31982421875,-535.6817626953125,-3675.14306640625,-555.0494995117188,-3679.126220703125,-582.9230346679688C-3679.638671875,-586.5093383789062,-3679.764892578125,-590.1359252929688,-3679.51025390625,-593.7444458007812L-3679.126220703125,-597.3427734375ZM-3620.082275390625,-481.9858093261719C-3624.06494140625,-509.8599548339844,-3604.696044921875,-535.6817626953125,-3576.8232421875,-539.6646728515625C-3573.236328125,-540.17626953125,-3569.60986328125,-540.304931640625,-3566.00244140625,-540.048828125L-3562.404052734375,-539.6640625C-3558.42138671875,-511.7897033691406,-3577.790283203125,-485.9678649902344,-3605.663330078125,-481.9851989746094C-3609.25,-481.4733581542969,-3612.876708984375,-481.3449401855469,-3616.484130859375,-481.6007995605469L-3620.082275390625,-481.9858093261719ZM-3620.0830078125,-597.3427734375C-3592.21044921875,-601.3248291015625,-3566.38671875,-581.9578247070312,-3562.404052734375,-554.0836791992188C-3561.891845703125,-550.4974365234375,-3561.7626953125,-546.8690185546875,-3562.020263671875,-543.2623291015625L-3562.404052734375,-539.6640625C-3590.2763671875,-535.6817626953125,-3616.099609375,-555.0494995117188,-3620.0830078125,-582.9230346679688C-3620.59521484375,-586.5093383789062,-3620.721435546875,-590.1359252929688,-3620.466796875,-593.7444458007812L-3620.0830078125,-597.3427734375ZM-3854.27099609375,-539.6700439453125C-3837.377197265625,-562.1950073242188,-3805.423095703125,-566.7609252929688,-3782.8974609375,-549.86669921875C-3779.998291015625,-547.69189453125,-3777.343994140625,-545.2191162109375,-3774.973876953125,-542.4862060546875L-3772.70166015625,-539.669921875C-3789.595458984375,-517.1448974609375,-3821.549072265625,-512.57958984375,-3844.07470703125,-529.4737548828125C-3847.9404296875,-532.3736572265625,-3851.37109375,-535.8043212890625,-3854.27099609375,-539.6700439453125Z">
      </path>
    </g>
    <g id="strokes-ed57dbe9-56c7-80ce-8007-9e430ea1af56-ed57dbe9-56c7-80ce-8007-9e399218707a" class="strokes">
      <g class="stroke-shape">
        <path d="M-3514.6591796875,-539.6689453125L-3283.49169921875,-539.6695556640625M-3349.872802734375,-597.34765625C-3345.89013671875,-569.4735107421875,-3365.259033203125,-543.6516723632812,-3393.1318359375,-539.6688232421875C-3396.71875,-539.1571655273438,-3400.34521484375,-539.028564453125,-3403.952880859375,-539.2846069335938L-3407.551025390625,-539.66943359375C-3411.53369140625,-567.5437622070312,-3392.1650390625,-593.3656005859375,-3364.291748046875,-597.3482666015625C-3360.705078125,-597.860107421875,-3357.078369140625,-597.988525390625,-3353.470947265625,-597.732666015625L-3349.872802734375,-597.34765625ZM-3292.194091796875,-597.3477783203125C-3288.213623046875,-569.4758911132812,-3307.58056640625,-543.6510009765625,-3335.453125,-539.6689453125C-3339.0400390625,-539.1572875976562,-3342.667236328125,-539.0281372070312,-3346.27392578125,-539.2845458984375L-3349.872802734375,-539.6689453125C-3353.85546875,-567.5430908203125,-3334.486083984375,-593.3655395507812,-3306.61376953125,-597.3477783203125C-3303.02685546875,-597.8594360351562,-3299.399658203125,-597.9886474609375,-3295.79296875,-597.732177734375L-3292.194091796875,-597.3477783203125ZM-3234.515869140625,-597.3471069335938C-3230.53564453125,-569.4754028320312,-3249.902099609375,-543.651123046875,-3277.7744140625,-539.6688842773438C-3281.36181640625,-539.1566162109375,-3284.99072265625,-539.0304565429688,-3288.59814453125,-539.2863159179688L-3292.194091796875,-539.6689453125C-3296.1767578125,-567.543212890625,-3276.807373046875,-593.3656616210938,-3248.934814453125,-597.3477172851562C-3245.347900390625,-597.859375,-3241.720947265625,-597.9885864257812,-3238.114013671875,-597.7321166992188L-3234.515869140625,-597.3471069335938ZM-3234.517578125,-481.9925842285156C-3262.389892578125,-478.0103759765625,-3288.213134765625,-497.3780822753906,-3292.194091796875,-525.2492065429688C-3292.706298828125,-528.8355102539062,-3292.8349609375,-532.4644775390625,-3292.577880859375,-536.0706176757812L-3292.194091796875,-539.6689453125C-3264.321533203125,-543.6510009765625,-3238.497802734375,-524.2839965820312,-3234.517822265625,-496.41229248046875C-3234.00537109375,-492.82598876953125,-3233.876220703125,-489.19757080078125,-3234.1337890625,-485.5908508300781L-3234.517578125,-481.9925842285156ZM-3292.1962890625,-481.9924621582031C-3320.06884765625,-478.0104064941406,-3345.891845703125,-497.3779602050781,-3349.872802734375,-525.249267578125C-3350.384521484375,-528.836181640625,-3350.513671875,-532.4645385742188,-3350.256591796875,-536.0704956054688L-3349.872802734375,-539.6689453125C-3321.999755859375,-543.651611328125,-3296.1767578125,-524.2840576171875,-3292.19580078125,-496.4128112792969C-3291.681640625,-492.8234558105469,-3291.554931640625,-489.1976623535156,-3291.8095703125,-485.589111328125L-3292.1962890625,-481.9924621582031ZM-3349.872314453125,-481.9906921386719C-3377.74462890625,-478.0086364746094,-3403.568359375,-497.3756103515625,-3407.551025390625,-525.249755859375C-3408.063232421875,-528.8360595703125,-3408.1923828125,-532.4644165039062,-3407.934814453125,-536.0711669921875L-3407.551025390625,-539.66943359375C-3379.6787109375,-543.6516723632812,-3353.85546875,-524.283935546875,-3349.872314453125,-496.4104309082031C-3349.35986328125,-492.8240966796875,-3349.233642578125,-489.1975402832031,-3349.48828125,-485.5889892578125L-3349.872314453125,-481.9906921386719ZM-3408.916259765625,-597.34765625C-3404.93359375,-569.4735107421875,-3424.302490234375,-543.6516723632812,-3452.17529296875,-539.6688232421875C-3455.76220703125,-539.1571655273438,-3459.388671875,-539.028564453125,-3462.99609375,-539.2846069335938L-3466.594482421875,-539.66943359375C-3470.5771484375,-567.5437622070312,-3451.208251953125,-593.3656005859375,-3423.335205078125,-597.3482666015625C-3419.74853515625,-597.860107421875,-3416.121826171875,-597.988525390625,-3412.514404296875,-597.732666015625L-3408.916259765625,-597.34765625ZM-3408.91552734375,-481.9906921386719C-3436.7880859375,-478.0086364746094,-3462.61181640625,-497.3756103515625,-3466.594482421875,-525.249755859375C-3467.106689453125,-528.8360595703125,-3467.23583984375,-532.4644165039062,-3466.978271484375,-536.0711669921875L-3466.594482421875,-539.66943359375C-3438.72216796875,-543.6516723632812,-3412.89892578125,-524.283935546875,-3408.91552734375,-496.4104309082031C-3408.4033203125,-492.8240966796875,-3408.277099609375,-489.1975402832031,-3408.53173828125,-485.5889892578125L-3408.91552734375,-481.9906921386719ZM-3174.7275390625,-539.6634521484375C-3191.621337890625,-517.138427734375,-3223.575439453125,-512.572509765625,-3246.10107421875,-529.4667358398438C-3249.000244140625,-531.6415405273438,-3251.654541015625,-534.1143188476562,-3254.024658203125,-536.8472290039062L-3256.296875,-539.66357421875C-3239.403076171875,-562.1885986328125,-3207.449462890625,-566.75390625,-3184.923828125,-549.8596801757812C-3181.05810546875,-546.9598388671875,-3177.62744140625,-543.5291137695312,-3174.7275390625,-539.6634521484375ZM-3514.33935546875,-539.66455078125L-3745.5068359375,-539.6639404296875M-3679.125732421875,-481.9858093261719C-3683.1083984375,-509.8599548339844,-3663.739501953125,-535.6817626953125,-3635.86669921875,-539.6646728515625C-3632.27978515625,-540.17626953125,-3628.6533203125,-540.304931640625,-3625.045654296875,-540.048828125L-3621.447509765625,-539.6640625C-3617.46484375,-511.7897033691406,-3636.83349609375,-485.9678649902344,-3664.706787109375,-481.9851989746094C-3668.29345703125,-481.4733581542969,-3671.920166015625,-481.3449401855469,-3675.527587890625,-481.6007995605469L-3679.125732421875,-481.9858093261719ZM-3736.804443359375,-481.9856872558594C-3740.784912109375,-509.8575744628906,-3721.41796875,-535.6824951171875,-3693.54541015625,-539.66455078125C-3689.95849609375,-540.1761474609375,-3686.331298828125,-540.3052978515625,-3682.724609375,-540.0489501953125L-3679.125732421875,-539.66455078125C-3675.14306640625,-511.7903747558594,-3694.512451171875,-485.9679260253906,-3722.384765625,-481.9856872558594C-3725.9716796875,-481.4740295410156,-3729.598876953125,-481.3448181152344,-3733.20556640625,-481.6012878417969L-3736.804443359375,-481.9856872558594ZM-3794.482666015625,-481.9863586425781C-3798.462890625,-509.8580627441406,-3779.096435546875,-535.682373046875,-3751.22412109375,-539.66455078125C-3747.63671875,-540.1768798828125,-3744.0078125,-540.302978515625,-3740.400390625,-540.047119140625L-3736.804443359375,-539.66455078125C-3732.82177734375,-511.7902526855469,-3752.191162109375,-485.9678039550781,-3780.063720703125,-481.9857482910156C-3783.650634765625,-481.4740905761719,-3787.277587890625,-481.3448791503906,-3790.884521484375,-481.6013488769531L-3794.482666015625,-481.9863586425781ZM-3794.48095703125,-597.3408813476562C-3766.608642578125,-601.3230590820312,-3740.785400390625,-581.9553833007812,-3736.804443359375,-554.084228515625C-3736.292236328125,-550.4979248046875,-3736.16357421875,-546.8690185546875,-3736.420654296875,-543.2628173828125L-3736.804443359375,-539.66455078125C-3764.677001953125,-535.6824951171875,-3790.500732421875,-555.0494384765625,-3794.480712890625,-582.921142578125C-3794.9931640625,-586.5074462890625,-3795.122314453125,-590.1358642578125,-3794.86474609375,-593.7426147460938L-3794.48095703125,-597.3408813476562ZM-3736.80224609375,-597.3410034179688C-3708.9296875,-601.3230590820312,-3683.106689453125,-581.9555053710938,-3679.125732421875,-554.0841674804688C-3678.614013671875,-550.497314453125,-3678.48486328125,-546.868896484375,-3678.741943359375,-543.262939453125L-3679.125732421875,-539.66455078125C-3706.998779296875,-535.681884765625,-3732.82177734375,-555.0493774414062,-3736.802734375,-582.920654296875C-3737.31689453125,-586.510009765625,-3737.443603515625,-590.1358032226562,-3737.18896484375,-593.7443237304688L-3736.80224609375,-597.3410034179688ZM-3679.126220703125,-597.3427734375C-3651.25390625,-601.3248291015625,-3625.43017578125,-581.9578247070312,-3621.447509765625,-554.0836791992188C-3620.935302734375,-550.4974365234375,-3620.80615234375,-546.8690185546875,-3621.063720703125,-543.2623291015625L-3621.447509765625,-539.6640625C-3649.31982421875,-535.6817626953125,-3675.14306640625,-555.0494995117188,-3679.126220703125,-582.9230346679688C-3679.638671875,-586.5093383789062,-3679.764892578125,-590.1359252929688,-3679.51025390625,-593.7444458007812L-3679.126220703125,-597.3427734375ZM-3620.082275390625,-481.9858093261719C-3624.06494140625,-509.8599548339844,-3604.696044921875,-535.6817626953125,-3576.8232421875,-539.6646728515625C-3573.236328125,-540.17626953125,-3569.60986328125,-540.304931640625,-3566.00244140625,-540.048828125L-3562.404052734375,-539.6640625C-3558.42138671875,-511.7897033691406,-3577.790283203125,-485.9678649902344,-3605.663330078125,-481.9851989746094C-3609.25,-481.4733581542969,-3612.876708984375,-481.3449401855469,-3616.484130859375,-481.6007995605469L-3620.082275390625,-481.9858093261719ZM-3620.0830078125,-597.3427734375C-3592.21044921875,-601.3248291015625,-3566.38671875,-581.9578247070312,-3562.404052734375,-554.0836791992188C-3561.891845703125,-550.4974365234375,-3561.7626953125,-546.8690185546875,-3562.020263671875,-543.2623291015625L-3562.404052734375,-539.6640625C-3590.2763671875,-535.6817626953125,-3616.099609375,-555.0494995117188,-3620.0830078125,-582.9230346679688C-3620.59521484375,-586.5093383789062,-3620.721435546875,-590.1359252929688,-3620.466796875,-593.7444458007812L-3620.0830078125,-597.3427734375ZM-3854.27099609375,-539.6700439453125C-3837.377197265625,-562.1950073242188,-3805.423095703125,-566.7609252929688,-3782.8974609375,-549.86669921875C-3779.998291015625,-547.69189453125,-3777.343994140625,-545.2191162109375,-3774.973876953125,-542.4862060546875L-3772.70166015625,-539.669921875C-3789.595458984375,-517.1448974609375,-3821.549072265625,-512.57958984375,-3844.07470703125,-529.4737548828125C-3847.9404296875,-532.3736572265625,-3851.37109375,-535.8043212890625,-3854.27099609375,-539.6700439453125Z" style="fill:none;fill-opacity:none;stroke-width:6;stroke:#d4a373;stroke-opacity:1">
        </path>
      </g>
    </g>
  </g>
</svg>